
<!-- Generator: visioncortex VTracer 0.6.4 -->
<svg version="1.1" xmlns="http://www.w3.org/2000/svg" viewBox="0 0 1280 1114" preserveAspectRatio="xMidYMid meet">
<path d="M0 0 C0.735 -0.002 1.47 -0.004 2.228 -0.005 C4.717 -0.01 7.206 -0.007 9.696 -0.005 C11.489 -0.007 13.282 -0.009 15.075 -0.012 C20.023 -0.018 24.971 -0.018 29.919 -0.017 C35.25 -0.017 40.581 -0.022 45.912 -0.027 C56.373 -0.035 66.835 -0.038 77.297 -0.038 C85.817 -0.039 94.338 -0.041 102.859 -0.044 C127.053 -0.053 151.248 -0.058 175.442 -0.057 C177.401 -0.057 177.401 -0.057 179.4 -0.057 C180.707 -0.057 182.015 -0.057 183.362 -0.057 C204.458 -0.056 225.555 -0.066 246.651 -0.08 C268.349 -0.094 290.046 -0.101 311.744 -0.1 C323.91 -0.1 336.076 -0.103 348.242 -0.113 C358.624 -0.123 369.007 -0.125 379.389 -0.118 C384.67 -0.115 389.95 -0.114 395.231 -0.123 C429.103 -0.176 462.911 0.572 496.601 4.379 C497.57 4.485 498.54 4.592 499.539 4.702 C580.268 13.623 657.313 34.718 729.976 71.129 C731.555 71.916 731.555 71.916 733.166 72.72 C762.389 87.371 789.941 106.143 814.976 127.129 C815.504 127.57 816.032 128.012 816.576 128.468 C834.023 143.103 851.303 158.67 865.976 176.129 C866.817 177.081 867.659 178.034 868.526 179.015 C877.271 188.946 885.162 199.458 892.976 210.129 C893.502 210.839 894.027 211.549 894.569 212.28 C931.297 261.943 957.311 321.871 971.532 381.914 C971.957 383.667 972.458 385.401 972.976 387.129 C975.584 388.433 977.575 388.324 980.499 388.41 C981.719 388.447 982.938 388.483 984.195 388.521 C985.58 388.557 986.965 388.593 988.351 388.629 C989.809 388.67 991.268 388.712 992.727 388.754 C1003.169 389.04 1013.612 389.203 1024.058 389.343 C1025.391 389.362 1026.725 389.381 1028.058 389.4 C1029.402 389.419 1030.746 389.438 1032.089 389.457 C1032.757 389.466 1033.425 389.476 1034.113 389.485 C1038.756 389.55 1043.398 389.6 1048.042 389.648 C1077.05 390.004 1100.628 393.948 1121.976 415.129 C1122.821 415.933 1123.667 416.737 1124.538 417.566 C1125.342 418.412 1126.147 419.257 1126.976 420.129 C1127.629 420.787 1128.283 421.446 1128.956 422.125 C1148.18 442.275 1158.227 471.868 1158.073 499.437 C1158.072 500.404 1158.07 501.371 1158.069 502.367 C1158.063 505.433 1158.051 508.5 1158.038 511.566 C1158.033 513.654 1158.029 515.742 1158.024 517.83 C1158.013 522.929 1157.996 528.029 1157.976 533.129 C1156.88 532.19 1155.784 531.251 1154.688 530.312 C1153.773 529.527 1153.773 529.527 1152.839 528.727 C1151.608 527.672 1150.379 526.614 1149.151 525.556 C1142.487 519.823 1135.782 514.608 1127.913 510.629 C1127.326 510.327 1126.739 510.026 1126.134 509.715 C1124.112 508.75 1122.065 507.94 1119.976 507.129 C1119.135 506.792 1118.295 506.454 1117.429 506.107 C1104.998 501.841 1092.223 502.524 1079.233 502.519 C1076.653 502.504 1074.072 502.488 1071.491 502.469 C1065.428 502.43 1059.366 502.408 1053.303 502.395 C1046.391 502.379 1039.479 502.341 1032.567 502.301 C1018.37 502.219 1004.173 502.164 989.976 502.129 C990.138 503.414 990.3 504.7 990.467 506.025 C991.013 510.962 991.117 515.829 991.105 520.792 C991.107 521.712 991.108 522.631 991.11 523.579 C991.115 526.59 991.112 529.602 991.108 532.613 C991.109 534.718 991.11 536.823 991.111 538.928 C991.113 543.326 991.111 547.724 991.106 552.121 C991.1 557.756 991.104 563.39 991.11 569.025 C991.113 573.366 991.112 577.707 991.109 582.047 C991.109 584.125 991.11 586.203 991.112 588.281 C991.114 591.182 991.111 594.083 991.105 596.983 C991.108 598.267 991.108 598.267 991.111 599.578 C991.097 603.562 990.968 607.24 989.976 611.129 C990.728 611.123 991.48 611.118 992.256 611.113 C1000.015 611.067 1007.773 611.07 1015.532 611.105 C1020.51 611.126 1025.487 611.125 1030.465 611.098 C1036.266 611.068 1042.065 611.082 1047.865 611.117 C1050.16 611.125 1052.456 611.119 1054.751 611.098 C1070.515 610.966 1082.827 613.058 1096.976 620.129 C1098.126 620.689 1099.276 621.25 1100.462 621.827 C1106.527 624.89 1111.802 628.747 1116.976 633.129 C1117.789 633.808 1118.602 634.487 1119.44 635.187 C1137.246 650.579 1147.796 670.614 1154.351 692.879 C1154.727 694.136 1154.727 694.136 1155.111 695.42 C1158.714 708.305 1158.104 721.621 1158.038 734.879 C1158.033 736.655 1158.028 738.431 1158.024 740.207 C1158.014 744.514 1157.996 748.821 1157.976 753.129 C1153.099 752.377 1150.757 750.415 1147.351 747.004 C1122.562 723.339 1093.086 724.961 1061.062 725.031 C1058.509 725.033 1055.956 725.034 1053.404 725.035 C1047.423 725.039 1041.441 725.047 1035.46 725.057 C1028.638 725.068 1021.815 725.073 1014.993 725.078 C1000.987 725.089 986.981 725.106 972.976 725.129 C972.842 725.949 972.709 726.769 972.572 727.614 C972.395 728.692 972.218 729.77 972.036 730.88 C971.862 731.948 971.688 733.015 971.508 734.115 C970.872 737.714 970.005 741.105 968.979 744.613 C968.791 745.264 968.602 745.914 968.407 746.584 C967.793 748.685 967.167 750.782 966.538 752.879 C966.32 753.611 966.102 754.344 965.877 755.098 C958.184 780.886 949.419 805.731 937.976 830.129 C937.048 832.145 936.121 834.162 935.194 836.179 C919.466 870.089 898.956 901.498 874.976 930.129 C874.482 930.721 873.989 931.313 873.481 931.924 C861.35 946.457 848.534 960.886 834.151 973.23 C831.669 975.396 829.265 977.637 826.851 979.879 C821.176 985.052 815.221 989.802 809.128 994.471 C807.456 995.759 805.792 997.056 804.131 998.358 C796.254 1004.515 788.173 1010.279 779.851 1015.816 C779.206 1016.246 778.562 1016.675 777.898 1017.117 C764.666 1025.903 751.059 1033.772 736.976 1041.129 C736.079 1041.599 736.079 1041.599 735.165 1042.079 C717.183 1051.506 698.984 1059.935 679.976 1067.129 C678.85 1067.555 677.724 1067.981 676.564 1068.42 C637.158 1083.187 596.405 1093.876 554.976 1101.129 C553.767 1101.345 552.559 1101.561 551.314 1101.783 C533.777 1104.879 516.184 1106.987 498.476 1108.816 C497.003 1108.97 497.003 1108.97 495.502 1109.127 C467.379 1112.042 439.34 1113.432 411.081 1113.533 C407.043 1113.55 403.006 1113.577 398.968 1113.602 C390.938 1113.649 382.908 1113.686 374.877 1113.718 C368.249 1113.745 361.621 1113.777 354.992 1113.81 C270.041 1114.238 185.089 1114.211 -10.024 1114.129 C-8.4 1110.726 -6.49 1108.183 -4.024 1105.316 C22.682 1072.85 33.516 1031.773 39.788 990.941 C39.894 990.26 39.999 989.578 40.108 988.876 C40.412 986.884 40.706 984.892 40.995 982.898 C41.244 981.19 41.244 981.19 41.498 979.448 C43.198 965.292 43.143 951.087 43.181 936.853 C43.191 934.536 43.201 932.219 43.211 929.901 C43.238 923.652 43.259 917.403 43.279 911.154 C43.301 904.608 43.328 898.062 43.355 891.516 C43.399 880.542 43.44 869.568 43.478 858.594 C43.518 847.299 43.559 836.003 43.603 824.707 C43.607 823.66 43.607 823.66 43.612 822.592 C43.625 819.09 43.639 815.588 43.653 812.086 C43.766 783.1 43.873 754.114 43.976 725.129 C43.009 725.129 42.042 725.13 41.046 725.131 C37.402 725.134 33.758 725.135 30.113 725.137 C28.547 725.138 26.98 725.139 25.414 725.14 C13.648 725.149 1.888 725.09 -9.875 724.811 C-12.483 724.752 -15.091 724.706 -17.7 724.66 C-42.038 724.154 -64.702 717.851 -83.024 701.129 C-83.5 700.696 -83.975 700.263 -84.465 699.817 C-106.22 679.745 -120.468 649.775 -122.024 620.129 C-122.178 613.234 -122.119 606.337 -122.087 599.441 C-122.082 597.564 -122.077 595.687 -122.073 593.81 C-122.062 589.25 -122.045 584.689 -122.024 580.129 C-117.567 583.387 -113.315 586.661 -109.337 590.504 C-94.069 604.333 -76.573 611.232 -56.2 610.996 C-54.522 611.003 -52.844 611.013 -51.165 611.026 C-46.772 611.052 -42.38 611.038 -37.987 611.015 C-32.774 610.993 -27.561 611.018 -22.348 611.037 C-18.262 611.051 -14.177 611.059 -10.091 611.042 C7.956 611.011 25.906 611.653 43.976 612.129 C43.976 575.829 43.976 539.529 43.976 502.129 C20.208 501.84 20.208 501.84 -3.56 501.561 C-8.199 501.502 -8.199 501.502 -10.383 501.473 C-11.881 501.454 -13.379 501.436 -14.876 501.42 C-42.143 501.125 -42.143 501.125 -51.462 497.566 C-52.175 497.301 -52.888 497.037 -53.623 496.764 C-80.103 486.55 -100.533 464.843 -112.024 439.129 C-120.032 418.946 -122.193 399.966 -122.087 378.441 C-122.082 376.661 -122.077 374.88 -122.073 373.099 C-122.062 368.776 -122.045 364.452 -122.024 360.129 C-121.034 359.799 -120.044 359.469 -119.024 359.129 C-118.308 359.856 -117.591 360.583 -116.853 361.332 C-99.01 378.977 -78.531 388.187 -53.316 388.334 C-52.261 388.344 -51.207 388.354 -50.121 388.364 C-46.652 388.395 -43.184 388.42 -39.716 388.445 C-37.304 388.466 -34.893 388.487 -32.482 388.508 C-26.148 388.563 -19.813 388.613 -13.479 388.661 C-7.01 388.711 -0.542 388.767 5.927 388.822 C18.61 388.929 31.293 389.031 43.976 389.129 C43.891 360.406 43.796 331.684 43.688 302.961 C43.678 300.296 43.668 297.63 43.658 294.964 C43.656 294.301 43.653 293.638 43.651 292.956 C43.614 282.952 43.582 272.948 43.554 262.944 C43.521 251.305 43.481 239.666 43.433 228.026 C43.408 221.875 43.386 215.724 43.372 209.573 C43.452 164.17 43.452 164.17 38.288 119.129 C38.16 118.385 38.032 117.641 37.9 116.874 C31.136 77.694 20.058 38.632 -5.622 7.467 C-9.024 3.32 -9.024 3.32 -9.024 1.129 C-6.037 -0.365 -3.334 0.002 0 0 Z M212.976 56.129 C211.699 62.015 211.837 67.843 211.849 73.834 C211.847 75.021 211.845 76.209 211.844 77.432 C211.841 80.72 211.842 84.008 211.845 87.296 C211.847 90.847 211.844 94.397 211.841 97.948 C211.836 104.908 211.837 111.869 211.84 118.829 C211.843 124.501 211.843 130.173 211.842 135.846 C211.842 136.654 211.841 137.463 211.841 138.296 C211.841 139.939 211.841 141.583 211.84 143.226 C211.837 158.65 211.841 174.075 211.846 189.499 C211.851 202.668 211.85 215.837 211.845 229.007 C211.84 244.337 211.838 259.667 211.841 274.997 C211.841 276.642 211.841 278.287 211.842 279.933 C211.842 280.742 211.842 281.551 211.842 282.384 C211.843 288.022 211.842 293.659 211.839 299.296 C211.836 306.209 211.837 313.121 211.843 320.034 C211.845 323.546 211.846 327.057 211.843 330.569 C211.842 331.864 211.841 333.159 211.84 334.493 C211.839 335.607 211.837 336.72 211.836 337.868 C211.887 355.002 212.439 371.97 212.976 389.129 C400.746 389.129 588.516 389.129 781.976 389.129 C782.039 383.357 782.039 383.357 781.276 377.923 C781.122 377.172 780.967 376.421 780.808 375.647 C780.636 374.853 780.465 374.06 780.288 373.242 C780.021 371.973 780.021 371.973 779.749 370.678 C779.168 367.93 778.573 365.185 777.976 362.441 C777.669 361.026 777.669 361.026 777.357 359.582 C770.171 326.51 761.108 292.273 746.225 261.712 C744.958 259.093 743.722 256.461 742.49 253.827 C731.873 231.166 720.109 210.137 704.976 190.129 C704.497 189.492 704.019 188.855 703.526 188.199 C697.255 179.888 690.504 172.179 683.358 164.613 C681.307 162.411 679.334 160.142 677.351 157.879 C672.878 152.902 668.029 148.505 662.976 144.129 C661.937 143.205 660.899 142.28 659.862 141.355 C595.87 84.788 510.265 63.437 403.09 56.572 C402.349 56.551 401.608 56.53 400.844 56.509 C382.529 56.001 364.217 55.998 345.897 56.027 C341.198 56.034 336.499 56.034 331.8 56.035 C322.965 56.038 314.13 56.046 305.294 56.057 C295.209 56.068 285.124 56.073 275.039 56.078 C254.351 56.089 233.663 56.106 212.976 56.129 Z M299.851 501.629 C298.696 501.635 297.541 501.641 296.352 501.647 C268.559 501.791 240.767 501.948 212.976 502.129 C211.359 505.362 211.837 508.903 211.846 512.455 C211.844 513.317 211.843 514.18 211.841 515.068 C211.836 517.935 211.839 520.801 211.843 523.668 C211.842 525.667 211.841 527.666 211.84 529.665 C211.838 533.87 211.841 538.075 211.845 542.28 C211.851 547.628 211.848 552.976 211.842 558.323 C211.838 562.462 211.839 566.601 211.842 570.74 C211.842 572.708 211.842 574.677 211.839 576.645 C211.837 579.427 211.841 582.209 211.846 584.99 C211.844 585.781 211.842 586.571 211.84 587.385 C211.859 592.761 212.135 598.101 212.484 603.464 C212.531 604.203 212.578 604.942 212.626 605.703 C212.742 607.512 212.859 609.32 212.976 611.129 C265.762 611.258 318.549 611.386 371.336 611.511 C377.666 611.526 383.996 611.541 390.325 611.556 C392.214 611.56 392.214 611.56 394.142 611.565 C411.687 611.607 429.233 611.649 446.779 611.692 C477.08 611.767 507.381 611.84 537.683 611.91 C538.867 611.913 540.051 611.915 541.271 611.918 C625.506 612.113 709.74 612.199 793.976 612.129 C794.901 609.353 795.101 607.709 795.103 604.847 C795.105 603.973 795.108 603.1 795.111 602.2 C795.109 601.244 795.107 600.289 795.105 599.305 C795.107 598.296 795.108 597.288 795.11 596.249 C795.115 592.908 795.112 589.567 795.108 586.226 C795.109 583.908 795.11 581.591 795.111 579.273 C795.113 574.411 795.111 569.55 795.106 564.688 C795.1 558.453 795.104 552.217 795.11 545.981 C795.113 541.194 795.112 536.406 795.109 531.618 C795.109 529.319 795.11 527.02 795.112 524.72 C795.114 521.507 795.111 518.295 795.105 515.082 C795.107 514.129 795.109 513.175 795.111 512.193 C795.108 511.317 795.105 510.44 795.103 509.538 C795.102 508.778 795.102 508.019 795.101 507.237 C794.973 505.085 794.523 503.207 793.976 501.129 C739.249 501.098 684.523 501.078 629.796 501.067 C626.673 501.066 623.549 501.065 620.426 501.065 C481.873 501.033 481.873 501.033 299.851 501.629 Z M332.671 724.773 C331.257 724.777 331.257 724.777 329.816 724.781 C290.536 724.893 251.256 725.012 211.976 725.129 C211.976 834.359 211.976 943.589 211.976 1056.129 C260.733 1056.221 260.733 1056.221 310.476 1056.316 C320.678 1056.343 330.88 1056.371 341.392 1056.399 C350.666 1056.409 350.666 1056.409 359.941 1056.415 C364.021 1056.418 368.1 1056.429 372.18 1056.445 C396.634 1056.54 420.683 1056.15 444.976 1053.129 C445.964 1053.007 446.953 1052.885 447.971 1052.759 C453.405 1052.077 458.817 1051.304 464.226 1050.441 C465.019 1050.317 465.812 1050.193 466.63 1050.065 C538.056 1038.833 607.481 1014.01 661.976 965.129 C662.75 964.439 662.75 964.439 663.54 963.736 C673.971 954.421 684.08 944.855 692.78 933.879 C695.027 931.064 697.371 928.354 699.726 925.629 C739.06 878.427 761.381 818.041 775.476 759.004 C775.689 758.113 775.903 757.223 776.123 756.306 C779.884 740.862 779.884 740.862 781.976 725.129 C780.264 723.417 778.04 724.003 775.701 724.002 C774.541 723.999 773.381 723.996 772.186 723.993 C770.887 723.995 769.589 723.997 768.251 723.999 C766.86 723.998 765.468 723.996 764.077 723.994 C760.175 723.989 756.273 723.991 752.371 723.994 C748.93 723.996 745.489 723.995 742.048 723.993 C732.324 723.989 722.6 723.992 712.876 723.998 C705.516 724.003 698.156 724.005 690.796 724.006 C593.635 724.025 496.474 724.315 332.671 724.773 Z " fill="#000000" transform="translate(122.02441692352295,-0.12863445281982422)"/>
</svg>